# xmcd
# 
# Track frame offsets:
#     150
#     13217
#     28607
#     40862
#     53257
#     66595
#     88990
#     102415
#     116215
#     130970
#     144440
#     164367
#     178635
#     196787
#     206790
#     219247
#     232872
#     241612
#     256850
#     271510
#     280835
#     294790
# 
# Disc length: 4116
# 
# Revision: 2
# Processed by: cddbd v1.5.2PL0 Copyright (c) Steve Scherf et al.
# Submitted via: fre:ac v1.0.31
# 
DISCID=34101216
DTITLE=Albert Lee - Black Claw and Country Fever
DYEAR=0
DGENRE=Blues
TTITLE0=That's Alright Mama
TTITLE1=What A Stupid Thing To Do
TTITLE2=Best I Can
TTITLE3=Send Me Back To The Mines
TTITLE4=The Fool (With Strings)
TTITLE5=Another Useless Day
TTITLE6=Six Days On The Road
TTITLE7=Good Times
TTITLE8=St. Louis
TTITLE9=Brother Preacher
TTITLE10=Country In Harlem
TTITLE11=Look Out  Cleveland
TTITLE12=Tears Of Range
TTITLE13=Mama Come Get Your Baby Boy
TTITLE14=Memphis Streets
TTITLE15=Long Gone
TTITLE16=Too Much Of Nothing
TTITLE17=Rocky Top
TTITLE18=Tonight I'll Be Staying Here
TTITLE19=Mama Tried
TTITLE20=Lay Lady Lay
TTITLE21=The Fool (With No Strings)
EXTD=
EXTT0=
EXTT1=
EXTT2=
EXTT3=
EXTT4=
EXTT5=
EXTT6=
EXTT7=
EXTT8=
EXTT9=
EXTT10=
EXTT11=
EXTT12=
EXTT13=
EXTT14=
EXTT15=
EXTT16=
EXTT17=
EXTT18=
EXTT19=
EXTT20=
EXTT21=
PLAYORDER=
